<svg width="25" height="25" viewBox="0 0 25 25" fill="none" xmlns="http://www.w3.org/2000/svg">
<path d="M18.3329 23.5H6.66626C4.77043 23.5 3.04126 22.0417 2.72876 20.1667L1.34334 11.8751C1.12459 10.5834 1.7496 8.92715 2.78085 8.10423L9.99961 2.32293C11.3954 1.19793 13.5933 1.20836 14.9996 2.33336L22.2184 8.10423C23.2392 8.92715 23.8642 10.5834 23.6559 11.8751L22.2704 20.1667C21.9579 22.0104 20.1975 23.5 18.3329 23.5ZM12.4892 3.06254C11.9371 3.06254 11.385 3.22917 10.9788 3.55209L3.76002 9.33339C3.16627 9.81256 2.76002 10.875 2.88502 11.625L4.27044 19.9167C4.45794 21.0104 5.55168 21.9375 6.66626 21.9375H18.3329C19.4475 21.9375 20.5413 21.0104 20.7288 19.9063L22.1142 11.6146C22.2392 10.8646 21.8225 9.79171 21.2392 9.32296L14.0204 3.55209C13.6038 3.22917 13.0517 3.06254 12.4892 3.06254Z" fill="#868686"/>
<path d="M12.4997 16.9271C10.6351 16.9271 9.11426 15.4063 9.11426 13.5417C9.11426 11.6771 10.6351 10.1562 12.4997 10.1562C14.3643 10.1562 15.8851 11.6771 15.8851 13.5417C15.8851 15.4063 14.3643 16.9271 12.4997 16.9271ZM12.4997 11.7188C11.4997 11.7188 10.6768 12.5417 10.6768 13.5417C10.6768 14.5417 11.4997 15.3646 12.4997 15.3646C13.4997 15.3646 14.3226 14.5417 14.3226 13.5417C14.3226 12.5417 13.4997 11.7188 12.4997 11.7188Z" fill="#868686"/>
</svg>
