<svg width="25" height="25" viewBox="0 0 25 25" fill="none" xmlns="http://www.w3.org/2000/svg">
<path d="M3.03996 15.996L3.03998 15.996L3.04272 15.9915C3.26586 15.6289 3.65485 15.4125 4.0838 15.4125H9.37547C9.69701 15.4125 10.0069 15.5409 10.2564 15.7816C10.4837 16.0105 10.6087 16.314 10.6088 16.6454C10.6088 16.6455 10.6088 16.6457 10.6088 16.6458L10.5984 21.332V21.3333C10.5984 21.7312 10.4023 22.1104 10.0727 22.3421C9.85904 22.4915 9.6143 22.5667 9.37547 22.5667C9.25779 22.5667 9.11626 22.5411 8.97596 22.4948C6.3778 21.578 4.1896 19.626 2.97793 17.1446C2.79605 16.7658 2.81794 16.3498 3.03996 15.996Z" stroke="#868686" stroke-width="1.2"/>
<path d="M22.8316 10.1329L22.8316 10.1329L22.8326 10.1371C22.9149 10.4869 22.8343 10.8614 22.6038 11.1568C22.3629 11.4524 22.0142 11.6184 21.6354 11.6184H3.37501C2.99475 11.6184 2.64485 11.4511 2.40385 11.1534C2.16631 10.86 2.08433 10.497 2.16798 10.1346L2.16837 10.1329C3.27267 5.28182 7.51874 1.90176 12.5 1.90176C17.4813 1.90176 21.7273 5.28182 22.8316 10.1329Z" stroke="#868686" stroke-width="1.2"/>
<path d="M20.8943 15.4649H20.8955C21.3203 15.4649 21.7105 15.6777 21.946 16.0632L21.946 16.0632L21.9481 16.0665C22.1614 16.4106 22.1829 16.8367 22.0031 17.204C20.791 19.6572 18.6002 21.601 16.0196 22.5071L16.0102 22.5104L16.001 22.514C15.8929 22.5561 15.7703 22.5774 15.6351 22.5774C15.3963 22.5774 15.1515 22.5022 14.9379 22.3528C14.6082 22.1212 14.4122 21.7419 14.4122 21.3441L14.4122 21.3427L14.4018 16.6774C14.4018 16.6772 14.4018 16.677 14.4018 16.6768C14.4019 16.344 14.528 16.0393 14.7573 15.81C14.9866 15.5807 15.2913 15.4546 15.6241 15.4545C15.6243 15.4545 15.6245 15.4545 15.6247 15.4545L20.8943 15.4649Z" stroke="#868686" stroke-width="1.2"/>
</svg>
