<svg width="26" height="25" viewBox="0 0 26 25" fill="none" xmlns="http://www.w3.org/2000/svg">
<path d="M22.4583 8.93721V16.0622C22.4583 17.2288 21.8333 18.3122 20.8229 18.906L14.6354 22.4789C13.625 23.0622 12.375 23.0622 11.3542 22.4789L5.16667 18.906C4.15625 18.3226 3.53125 17.2393 3.53125 16.0622V8.93721C3.53125 7.77054 4.15625 6.68717 5.16667 6.09342L11.3542 2.52051C12.3646 1.93717 13.6146 1.93717 14.6354 2.52051L20.8229 6.09342C21.8333 6.68717 22.4583 7.76013 22.4583 8.93721Z" stroke="#868686" stroke-width="1.5" stroke-linecap="round" stroke-linejoin="round"/>
<path d="M12.9993 11.4586C14.3398 11.4586 15.4264 10.372 15.4264 9.03153C15.4264 7.69109 14.3398 6.60449 12.9993 6.60449C11.6589 6.60449 10.5723 7.69109 10.5723 9.03153C10.5723 10.372 11.6589 11.4586 12.9993 11.4586Z" stroke="#868686" stroke-width="1.5" stroke-linecap="round" stroke-linejoin="round"/>
<path d="M17.1663 17.3548C17.1663 15.4798 15.3018 13.959 12.9997 13.959C10.6976 13.959 8.83301 15.4798 8.83301 17.3548" stroke="#868686" stroke-width="1.5" stroke-linecap="round" stroke-linejoin="round"/>
</svg>
